<svg width="25" height="24" viewBox="0 0 25 24" fill="none" xmlns="http://www.w3.org/2000/svg">
<g clip-path="url(#clip0_1155_592)">
<path d="M23.7656 0.486004C23.696 0.312618 23.5622 0.172747 23.3921 0.0954898C23.222 0.0182323 23.0286 0.00953646 22.8522 0.0712111C22.6759 0.132886 22.5301 0.260182 22.4452 0.426619C22.3603 0.593056 22.3428 0.785817 22.3964 0.964804C23.5112 4.1688 21.2984 6.5616 19.6112 7.8432L18.9296 6.8664C18.7004 6.5388 18.188 6.2664 17.7896 6.2616L13.964 6.2784C13.4967 6.29252 13.0418 6.43266 12.6476 6.684L1.3748 14.5884C1.11259 14.7729 0.934179 15.0538 0.878627 15.3696C0.823074 15.6854 0.894907 16.0103 1.0784 16.2732L6.2012 23.6028C6.5852 24.1488 7.1984 24.0828 7.7456 23.7012L19.0184 15.7956C19.3424 15.5664 19.7168 15.072 19.8488 14.694L21.0464 10.92C21.1784 10.5432 21.098 9.9684 20.8688 9.6408L20.4536 9.0456C22.7192 7.3092 25.0712 4.2408 23.7656 0.486004ZM18.5204 11.7156C18.3127 11.861 18.0784 11.964 17.8309 12.0188C17.5834 12.0736 17.3276 12.0791 17.0779 12.0349C16.8283 11.9908 16.5898 11.8979 16.3761 11.7616C16.1624 11.6253 15.9776 11.4482 15.8324 11.2404C15.5383 10.82 15.4231 10.3001 15.5119 9.79476C15.6008 9.28945 15.8865 8.84005 16.3064 8.5452C16.6356 8.31458 17.0286 8.19257 17.4305 8.19623C17.8324 8.19989 18.2231 8.32903 18.548 8.5656C18.2216 8.7624 17.9972 8.8776 17.9552 8.8956C17.8064 8.96653 17.6862 9.08588 17.6141 9.23409C17.5421 9.38231 17.5225 9.5506 17.5587 9.71139C17.5948 9.87218 17.6844 10.0159 17.8129 10.1191C17.9415 10.2223 18.1012 10.2787 18.266 10.2792C18.3692 10.2792 18.4748 10.2552 18.5744 10.2084C18.8072 10.098 19.0568 9.9672 19.3172 9.8124C19.3771 10.1725 19.3341 10.5421 19.1931 10.8789C19.0522 11.2156 18.819 11.5056 18.5204 11.7156Z" fill="#0B0B0B"/>
</g>
<defs>
<clipPath id="clip0_1155_592">
<rect width="24" height="24" fill="white" transform="translate(0.5)"/>
</clipPath>
</defs>
</svg>
