<svg width="25" height="24" viewBox="0 0 25 24" fill="none" xmlns="http://www.w3.org/2000/svg">
<g clip-path="url(#clip0_1155_742)">
<path d="M23.7657 0.486004C23.696 0.312618 23.5623 0.172747 23.3921 0.0954898C23.222 0.0182323 23.0287 0.00953646 22.8523 0.0712111C22.6759 0.132886 22.5301 0.260182 22.4452 0.426619C22.3603 0.593056 22.3429 0.785817 22.3965 0.964804C23.5113 4.1688 21.2985 6.5616 19.6113 7.8432L18.9297 6.8664C18.7005 6.5388 18.1881 6.2664 17.7897 6.2616L13.9641 6.2784C13.4967 6.29252 13.0419 6.43266 12.6477 6.684L1.37486 14.5884C1.11265 14.7729 0.93424 15.0538 0.878688 15.3696C0.823135 15.6854 0.894968 16.0103 1.07846 16.2732L6.20126 23.6028C6.58526 24.1488 7.19846 24.0828 7.74566 23.7012L19.0185 15.7956C19.3425 15.5664 19.7169 15.072 19.8489 14.694L21.0465 10.92C21.1785 10.5432 21.0981 9.9684 20.8689 9.6408L20.4537 9.0456C22.7193 7.3092 25.0713 4.2408 23.7657 0.486004ZM18.5205 11.7156C18.3128 11.861 18.0785 11.964 17.831 12.0188C17.5835 12.0736 17.3276 12.0791 17.078 12.0349C16.8284 11.9908 16.5899 11.8979 16.3762 11.7616C16.1625 11.6253 15.9777 11.4482 15.8325 11.2404C15.5384 10.82 15.4231 10.3001 15.512 9.79476C15.6008 9.28945 15.8866 8.84005 16.3065 8.5452C16.6356 8.31458 17.0286 8.19257 17.4305 8.19623C17.8324 8.19989 18.2231 8.32903 18.5481 8.5656C18.2217 8.7624 17.9973 8.8776 17.9553 8.8956C17.8065 8.96653 17.6863 9.08588 17.6142 9.23409C17.5422 9.38231 17.5226 9.5506 17.5587 9.71139C17.5948 9.87218 17.6845 10.0159 17.813 10.1191C17.9415 10.2223 18.1013 10.2787 18.2661 10.2792C18.3693 10.2792 18.4749 10.2552 18.5745 10.2084C18.8073 10.098 19.0569 9.9672 19.3173 9.8124C19.3772 10.1725 19.3341 10.5421 19.1932 10.8789C19.0522 11.2156 18.819 11.5056 18.5205 11.7156Z" fill="white"/>
</g>
<defs>
<clipPath id="clip0_1155_742">
<rect width="24" height="24" fill="white" transform="translate(0.5)"/>
</clipPath>
</defs>
</svg>
