<svg width="25" height="24" viewBox="0 0 25 24" fill="none" xmlns="http://www.w3.org/2000/svg">
<path d="M11.93 9.66996C11.97 9.77996 12 9.87996 12 9.99996V15.22C12 15.72 11.81 16.2 11.47 16.57L8.68 19.62L5.28 16.22L6.5 15L9.3 2.85996C9.36104 2.59286 9.51837 2.35762 9.74192 2.19921C9.96547 2.0408 10.2396 1.97033 10.5118 2.00127C10.784 2.0322 11.0353 2.16238 11.2176 2.3669C11.3999 2.57143 11.5004 2.83597 11.5 3.10996V8.06996C11.3368 8.02641 11.1689 8.0029 11 7.99996C9.9 7.99996 9 8.89996 9 9.99996V13C9 13.28 9.22 13.5 9.5 13.5C9.78 13.5 10 13.28 10 13V9.99996C10 9.44996 10.45 8.99996 11 8.99996C11.19 8.99996 11.35 9.06996 11.5 9.15996C11.62 9.22996 11.71 9.31996 11.8 9.41996C11.83 9.45996 11.86 9.49996 11.88 9.54996C11.9 9.58996 11.92 9.62996 11.93 9.66996ZM2.5 19L6.5 22L7.67 20.73L4.22 17.28L2.5 19ZM18.5 15L15.7 2.85996C15.639 2.59286 15.4816 2.35762 15.2581 2.19921C15.0345 2.0408 14.7604 1.97033 14.4882 2.00127C14.216 2.0322 13.9647 2.16238 13.7824 2.3669C13.6001 2.57143 13.4996 2.83597 13.5 3.10996V8.06996C13.66 8.02996 13.83 7.99996 14 7.99996C15.1 7.99996 16 8.89996 16 9.99996V13C16 13.28 15.78 13.5 15.5 13.5C15.22 13.5 15 13.28 15 13V9.99996C15 9.44996 14.55 8.99996 14 8.99996C13.81 8.99996 13.65 9.06996 13.5 9.15996C13.38 9.22996 13.29 9.31996 13.21 9.41996C13.18 9.45996 13.14 9.49996 13.12 9.54996C13.1 9.58996 13.08 9.62996 13.07 9.66996C13.03 9.77996 13 9.87996 13 9.99996V15.22C13 15.72 13.19 16.2 13.53 16.57L16.32 19.62L19.72 16.22L18.5 15ZM20.78 17.28L17.33 20.73L18.5 22L22.5 19L20.78 17.28Z" fill="white"/>
</svg>
