<svg width="100" height="107" viewBox="0 0 100 107" fill="none" xmlns="http://www.w3.org/2000/svg">
<line x1="0.5" y1="24" x2="0.499999" y2="1" stroke="black"/>
<line x1="23" y1="0.5" y2="0.5" stroke="black"/>
<path d="M1 1V8C5 6.4 7.33333 2.66667 8 1H1Z" fill="#0B0B0B"/>
<line x1="76" y1="0.5" x2="99" y2="0.499999" stroke="black"/>
<line x1="99.5" y1="23" x2="99.5" stroke="black"/>
<path d="M99 1L92 1C93.6 5 97.3333 7.33333 99 8V1Z" fill="#0B0B0B"/>
<line x1="99.5" y1="83" x2="99.5" y2="106" stroke="black"/>
<line x1="77" y1="106.5" x2="100" y2="106.5" stroke="black"/>
<path d="M99 106V99C95 100.6 92.6667 104.333 92 106H99Z" fill="#0B0B0B"/>
<line x1="24" y1="106" x2="1" y2="106" stroke="black"/>
<line x1="0.5" y1="83.5" x2="0.5" y2="106.5" stroke="black"/>
<path d="M1 105.5H8C6.4 101.5 2.66667 99.1667 1 98.5V105.5Z" fill="#0B0B0B"/>
</svg>
