<?xml version="1.0" encoding="UTF-8"?>
<!DOCTYPE svg PUBLIC "-//W3C//DTD SVG 1.1//EN" "http://www.w3.org/Graphics/SVG/1.1/DTD/svg11.dtd">
<!-- Creator: CorelDRAW 2018 (64-Bit Evaluation Version) -->
<svg xmlns="http://www.w3.org/2000/svg" xml:space="preserve" width="8.26772in" height="11.6929in" version="1.1" style="shape-rendering:geometricPrecision; text-rendering:geometricPrecision; image-rendering:optimizeQuality; fill-rule:evenodd; clip-rule:evenodd"
viewBox="0 0 8267.72 11692.91"
 xmlns:xlink="http://www.w3.org/1999/xlink">
 <defs>
  <style type="text/css">
   <![CDATA[
    .fil9 {fill:url(#id0)}
    .fil14 {fill:url(#id1)}
    .fil6 {fill:url(#id2)}
    .fil12 {fill:url(#id3)}
    .fil16 {fill:url(#id4)}
    .fil8 {fill:url(#id5)}
    .fil19 {fill:url(#id6)}
    .fil7 {fill:url(#id7)}
    .fil15 {fill:url(#id8)}
    .fil5 {fill:url(#id9)}
    .fil4 {fill:url(#id10)}
    .fil2 {fill:url(#id11)}
    .fil1 {fill:url(#id12)}
    .fil17 {fill:url(#id13)}
    .fil10 {fill:url(#id14)}
    .fil18 {fill:url(#id15)}
    .fil13 {fill:url(#id16)}
    .fil0 {fill:url(#id17)}
    .fil3 {fill:url(#id18)}
    .fil11 {fill:url(#id19)}
   ]]>
  </style>
  <linearGradient id="id0" gradientUnits="userSpaceOnUse" x1="3892.03" y1="5764.78" x2="5500.39" y2="8194.11">
   <stop offset="0" style="stop-opacity:1; stop-color:#FFF212"/>
   <stop offset="1" style="stop-opacity:1; stop-color:#ED3237"/>
  </linearGradient>
  <linearGradient id="id1" gradientUnits="userSpaceOnUse" xlink:href="#id0" x1="3892.03" y1="5764.78" x2="5500.39" y2="8194.11">
  </linearGradient>
  <linearGradient id="id2" gradientUnits="userSpaceOnUse" xlink:href="#id0" x1="3892.03" y1="5764.78" x2="5500.39" y2="8194.11">
  </linearGradient>
  <linearGradient id="id3" gradientUnits="userSpaceOnUse" xlink:href="#id0" x1="3892.03" y1="5764.78" x2="5500.39" y2="8194.11">
  </linearGradient>
  <linearGradient id="id4" gradientUnits="userSpaceOnUse" xlink:href="#id0" x1="3892.03" y1="5764.78" x2="5500.39" y2="8194.11">
  </linearGradient>
  <linearGradient id="id5" gradientUnits="userSpaceOnUse" xlink:href="#id0" x1="3892.03" y1="5764.78" x2="5500.39" y2="8194.11">
  </linearGradient>
  <linearGradient id="id6" gradientUnits="userSpaceOnUse" xlink:href="#id0" x1="3892.03" y1="5764.78" x2="5500.39" y2="8194.11">
  </linearGradient>
  <linearGradient id="id7" gradientUnits="userSpaceOnUse" xlink:href="#id0" x1="3892.03" y1="5764.78" x2="5500.39" y2="8194.11">
  </linearGradient>
  <linearGradient id="id8" gradientUnits="userSpaceOnUse" xlink:href="#id0" x1="3892.03" y1="5764.78" x2="5500.39" y2="8194.11">
  </linearGradient>
  <linearGradient id="id9" gradientUnits="userSpaceOnUse" xlink:href="#id0" x1="3892.03" y1="5764.78" x2="5500.39" y2="8194.11">
  </linearGradient>
  <linearGradient id="id10" gradientUnits="userSpaceOnUse" xlink:href="#id0" x1="3892.03" y1="5764.78" x2="5500.39" y2="8194.11">
  </linearGradient>
  <linearGradient id="id11" gradientUnits="userSpaceOnUse" xlink:href="#id0" x1="3892.03" y1="5764.78" x2="5500.39" y2="8194.11">
  </linearGradient>
  <linearGradient id="id12" gradientUnits="userSpaceOnUse" xlink:href="#id0" x1="3892.03" y1="5764.78" x2="5500.39" y2="8194.11">
  </linearGradient>
  <linearGradient id="id13" gradientUnits="userSpaceOnUse" xlink:href="#id0" x1="3892.03" y1="5764.78" x2="5500.39" y2="8194.11">
  </linearGradient>
  <linearGradient id="id14" gradientUnits="userSpaceOnUse" xlink:href="#id0" x1="3892.03" y1="5764.78" x2="5500.39" y2="8194.11">
  </linearGradient>
  <linearGradient id="id15" gradientUnits="userSpaceOnUse" xlink:href="#id0" x1="3957.74" y1="5721.27" x2="5434.67" y2="8237.63">
  </linearGradient>
  <linearGradient id="id16" gradientUnits="userSpaceOnUse" xlink:href="#id0" x1="3892.03" y1="5764.78" x2="5500.39" y2="8194.11">
  </linearGradient>
  <linearGradient id="id17" gradientUnits="userSpaceOnUse" xlink:href="#id0" x1="3892.03" y1="5764.78" x2="5500.39" y2="8194.11">
  </linearGradient>
  <linearGradient id="id18" gradientUnits="userSpaceOnUse" xlink:href="#id0" x1="3892.03" y1="5764.78" x2="5500.39" y2="8194.11">
  </linearGradient>
  <linearGradient id="id19" gradientUnits="userSpaceOnUse" xlink:href="#id0" x1="3892.03" y1="5764.78" x2="5500.39" y2="8194.11">
  </linearGradient>
 </defs>
 <g id="Layer_x0020_1">
  <metadata id="CorelCorpID_0Corel-Layer"/>
  <g id="_2383627188384">
   <polygon class="fil0" points="3557.55,5246.85 3738.69,5343.93 3870.74,6871.56 3641.81,6902.22 "/>
   <polygon class="fil1" points="3431.07,5294.04 3498.78,5294.04 3615.96,6952.89 3551.51,6957.45 "/>
   <polygon class="fil2" points="3339.88,5391.02 3421.91,5389.72 3537.13,6971.09 3434.27,6993.23 "/>
   <polygon class="fil3" points="3251.66,5492.12 3325.88,5496.03 3414.96,6969.7 3319.28,7005.93 "/>
   <polygon class="fil4" points="3786.23,5114.91 4113.06,4845.37 4096.13,4704.75 3786.23,4982.09 "/>
   <polygon class="fil5" points="3786.23,5326.5 4113.06,5056.96 4096.13,4916.34 3786.23,5193.69 "/>
   <polygon class="fil6" points="3800.81,5528.8 4127.64,5259.27 4110.71,5118.65 3800.81,5395.99 "/>
   <polygon class="fil7" points="3821.64,5726.72 4148.47,5457.19 4131.54,5316.56 3821.64,5593.91 "/>
   <polygon class="fil8" points="3843.94,5940.63 4170.77,5671.09 4153.84,5530.47 3843.94,5807.81 "/>
   <polygon class="fil9" points="3859.57,6141.15 4186.39,5871.61 4169.46,5730.99 3859.57,6008.33 "/>
   <polygon class="fil10" points="3872.58,6356.25 4199.41,6086.72 4182.48,5946.09 3872.58,6223.44 "/>
   <polygon class="fil11" points="3885.6,6548.96 4212.43,6279.43 4195.5,6138.8 3885.6,6416.15 "/>
   <polygon class="fil12" points="3896.02,6754.69 4222.84,6485.15 4205.91,6344.53 3896.02,6621.87 "/>
   <polygon class="fil13" points="3911.64,6939.58 4238.46,6670.05 4221.54,6529.43 3911.64,6806.77 "/>
   <polygon class="fil14" points="4499.55,5481.88 4640.17,5359.48 4739.14,6846.46 4588.09,6849.06 "/>
   <polygon class="fil15" points="4778.2,6851.67 4838.1,6856.88 4740.45,5433.7 4668.83,5442.81 "/>
   <polygon class="fil16" points="4787.34,5485.78 4844.63,5507.91 4932.09,6898.43 4866.98,6872.39 "/>
   <polygon class="fil17" points="4901.65,5562.16 4964.15,5559.56 5031.86,6934.56 4966.75,6918.93 "/>
   <path class="fil18" d="M5468.72 7229.48c-757.48,-380.17 -1780.13,-185.38 -2670.8,27.24 741.53,-408.7 1631.95,-692.23 2425.67,-266.4 276.48,148.34 245.13,239.16 245.13,239.16z"/>
   <polygon class="fil19" points="3676.74,4860.66 4150.7,4436.18 4392.89,4667.95 4546.54,6850.24 4306.96,6855.45 4153.31,4589.82 3736.65,4919.9 3872.7,6900.07 3741.33,6918.13 "/>
  </g>
 </g>
</svg>
