<svg xmlns="http://www.w3.org/2000/svg" xmlns:xlink="http://www.w3.org/1999/xlink" version="1.1" width="1000" height="1000" viewBox="0 0 1000 1000" xml:space="preserve">
<desc>Created with Fabric.js 3.5.0</desc>
<defs>
</defs>
<rect x="0" y="0" width="100%" height="100%" fill="#ffffff"/>
<g transform="matrix(4.1343 0 0 4.1343 499.9956 498.8364)" id="761448">
<g style="">
		<g transform="matrix(0.0855 0 0 0.0855 -35.9006 19.4855)" id="_2383627188384">
<linearGradient id="SVGID_41" gradientUnits="userSpaceOnUse" gradientTransform="matrix(1 0 0 1 -3714.145 -6074.535)" x1="3892.03" y1="5764.78" x2="5500.39" y2="8194.11">
<stop offset="0%" style="stop-color:rgb(255,242,18);stop-opacity: 1"/>
<stop offset="100%" style="stop-color:rgb(237,50,55);stop-opacity: 1"/>
</linearGradient>
<polygon style="stroke: none; stroke-width: 1; stroke-dasharray: none; stroke-linecap: butt; stroke-dashoffset: 0; stroke-linejoin: miter; stroke-miterlimit: 4; is-custom-font: none; font-file-url: none; fill: url(#SVGID_41); fill-rule: evenodd; opacity: 1;" points="-156.595,-827.685 24.545,-730.605 156.595,797.025 -72.335,827.685 "/>
</g>
		<g transform="matrix(0.0855 0 0 0.0855 -52.2027 23.8651)" id="_2383627188384">
<linearGradient id="SVGID_42" gradientUnits="userSpaceOnUse" gradientTransform="matrix(1 0 0 1 -3523.515 -6125.745)" x1="3892.03" y1="5764.78" x2="5500.39" y2="8194.11">
<stop offset="0%" style="stop-color:rgb(255,242,18);stop-opacity: 1"/>
<stop offset="100%" style="stop-color:rgb(237,50,55);stop-opacity: 1"/>
</linearGradient>
<polygon style="stroke: none; stroke-width: 1; stroke-dasharray: none; stroke-linecap: butt; stroke-dashoffset: 0; stroke-linejoin: miter; stroke-miterlimit: 4; is-custom-font: none; font-file-url: none; fill: url(#SVGID_42); fill-rule: evenodd; opacity: 1;" points="-92.445,-831.705 -24.735,-831.705 92.445,827.145 27.995,831.705 "/>
</g>
		<g transform="matrix(0.0855 0 0 0.0855 -59.4735 29.4876)" id="_2383627188384">
<linearGradient id="SVGID_43" gradientUnits="userSpaceOnUse" gradientTransform="matrix(1 0 0 1 -3438.505 -6191.475)" x1="3892.03" y1="5764.78" x2="5500.39" y2="8194.11">
<stop offset="0%" style="stop-color:rgb(255,242,18);stop-opacity: 1"/>
<stop offset="100%" style="stop-color:rgb(237,50,55);stop-opacity: 1"/>
</linearGradient>
<polygon style="stroke: none; stroke-width: 1; stroke-dasharray: none; stroke-linecap: butt; stroke-dashoffset: 0; stroke-linejoin: miter; stroke-miterlimit: 4; is-custom-font: none; font-file-url: none; fill: url(#SVGID_43); fill-rule: evenodd; opacity: 1;" points="-98.625,-800.455 -16.595,-801.755 98.625,779.615 -4.235,801.755 "/>
</g>
		<g transform="matrix(0.0855 0 0 0.0855 -68.47 34.4108)" id="_2383627188384">
<linearGradient id="SVGID_44" gradientUnits="userSpaceOnUse" gradientTransform="matrix(1 0 0 1 -3333.31 -6249.025)" x1="3892.03" y1="5764.78" x2="5500.39" y2="8194.11">
<stop offset="0%" style="stop-color:rgb(255,242,18);stop-opacity: 1"/>
<stop offset="100%" style="stop-color:rgb(237,50,55);stop-opacity: 1"/>
</linearGradient>
<polygon style="stroke: none; stroke-width: 1; stroke-dasharray: none; stroke-linecap: butt; stroke-dashoffset: 0; stroke-linejoin: miter; stroke-miterlimit: 4; is-custom-font: none; font-file-url: none; fill: url(#SVGID_44); fill-rule: evenodd; opacity: 1;" points="-81.65,-756.905 -7.43,-752.995 81.65,720.675 -14.03,756.905 "/>
</g>
		<g transform="matrix(0.0855 0 0 0.0855 -15.7593 -80.1111)" id="_2383627188384">
<linearGradient id="SVGID_45" gradientUnits="userSpaceOnUse" gradientTransform="matrix(1 0 0 1 -3949.645 -4909.83)" x1="3892.03" y1="5764.78" x2="5500.39" y2="8194.11">
<stop offset="0%" style="stop-color:rgb(255,242,18);stop-opacity: 1"/>
<stop offset="100%" style="stop-color:rgb(237,50,55);stop-opacity: 1"/>
</linearGradient>
<polygon style="stroke: none; stroke-width: 1; stroke-dasharray: none; stroke-linecap: butt; stroke-dashoffset: 0; stroke-linejoin: miter; stroke-miterlimit: 4; is-custom-font: none; font-file-url: none; fill: url(#SVGID_45); fill-rule: evenodd; opacity: 1;" points="-163.415,205.08 163.415,-64.46 146.485,-205.08 -163.415,72.26 "/>
</g>
		<g transform="matrix(0.0855 0 0 0.0855 -15.7593 -62.0146)" id="_2383627188384">
<linearGradient id="SVGID_46" gradientUnits="userSpaceOnUse" gradientTransform="matrix(1 0 0 1 -3949.645 -5121.42)" x1="3892.03" y1="5764.78" x2="5500.39" y2="8194.11">
<stop offset="0%" style="stop-color:rgb(255,242,18);stop-opacity: 1"/>
<stop offset="100%" style="stop-color:rgb(237,50,55);stop-opacity: 1"/>
</linearGradient>
<polygon style="stroke: none; stroke-width: 1; stroke-dasharray: none; stroke-linecap: butt; stroke-dashoffset: 0; stroke-linejoin: miter; stroke-miterlimit: 4; is-custom-font: none; font-file-url: none; fill: url(#SVGID_46); fill-rule: evenodd; opacity: 1;" points="-163.415,205.08 163.415,-64.46 146.485,-205.08 -163.415,72.27 "/>
</g>
		<g transform="matrix(0.0855 0 0 0.0855 -14.5123 -44.7121)" id="_2383627188384">
<linearGradient id="SVGID_47" gradientUnits="userSpaceOnUse" gradientTransform="matrix(1 0 0 1 -3964.225 -5323.725)" x1="3892.03" y1="5764.78" x2="5500.39" y2="8194.11">
<stop offset="0%" style="stop-color:rgb(255,242,18);stop-opacity: 1"/>
<stop offset="100%" style="stop-color:rgb(237,50,55);stop-opacity: 1"/>
</linearGradient>
<polygon style="stroke: none; stroke-width: 1; stroke-dasharray: none; stroke-linecap: butt; stroke-dashoffset: 0; stroke-linejoin: miter; stroke-miterlimit: 4; is-custom-font: none; font-file-url: none; fill: url(#SVGID_47); fill-rule: evenodd; opacity: 1;" points="-163.415,205.075 163.415,-64.455 146.485,-205.075 -163.415,72.265 "/>
</g>
		<g transform="matrix(0.0855 0 0 0.0855 -12.7309 -27.7852)" id="_2383627188384">
<linearGradient id="SVGID_48" gradientUnits="userSpaceOnUse" gradientTransform="matrix(1 0 0 1 -3985.055 -5521.64)" x1="3892.03" y1="5764.78" x2="5500.39" y2="8194.11">
<stop offset="0%" style="stop-color:rgb(255,242,18);stop-opacity: 1"/>
<stop offset="100%" style="stop-color:rgb(237,50,55);stop-opacity: 1"/>
</linearGradient>
<polygon style="stroke: none; stroke-width: 1; stroke-dasharray: none; stroke-linecap: butt; stroke-dashoffset: 0; stroke-linejoin: miter; stroke-miterlimit: 4; is-custom-font: none; font-file-url: none; fill: url(#SVGID_48); fill-rule: evenodd; opacity: 1;" points="-163.415,205.08 163.415,-64.45 146.485,-205.08 -163.415,72.27 "/>
</g>
		<g transform="matrix(0.0855 0 0 0.0855 -10.8236 -9.4903)" id="_2383627188384">
<linearGradient id="SVGID_49" gradientUnits="userSpaceOnUse" gradientTransform="matrix(1 0 0 1 -4007.355 -5735.55)" x1="3892.03" y1="5764.78" x2="5500.39" y2="8194.11">
<stop offset="0%" style="stop-color:rgb(255,242,18);stop-opacity: 1"/>
<stop offset="100%" style="stop-color:rgb(237,50,55);stop-opacity: 1"/>
</linearGradient>
<polygon style="stroke: none; stroke-width: 1; stroke-dasharray: none; stroke-linecap: butt; stroke-dashoffset: 0; stroke-linejoin: miter; stroke-miterlimit: 4; is-custom-font: none; font-file-url: none; fill: url(#SVGID_49); fill-rule: evenodd; opacity: 1;" points="-163.415,205.08 163.415,-64.46 146.485,-205.08 -163.415,72.26 "/>
</g>
		<g transform="matrix(0.0855 0 0 0.0855 -9.4872 7.6595)" id="_2383627188384">
<linearGradient id="SVGID_50" gradientUnits="userSpaceOnUse" gradientTransform="matrix(1 0 0 1 -4022.98 -5936.07)" x1="3892.03" y1="5764.78" x2="5500.39" y2="8194.11">
<stop offset="0%" style="stop-color:rgb(255,242,18);stop-opacity: 1"/>
<stop offset="100%" style="stop-color:rgb(237,50,55);stop-opacity: 1"/>
</linearGradient>
<polygon style="stroke: none; stroke-width: 1; stroke-dasharray: none; stroke-linecap: butt; stroke-dashoffset: 0; stroke-linejoin: miter; stroke-miterlimit: 4; is-custom-font: none; font-file-url: none; fill: url(#SVGID_50); fill-rule: evenodd; opacity: 1;" points="-163.41,205.08 163.41,-64.46 146.48,-205.08 -163.41,72.26 "/>
</g>
		<g transform="matrix(0.0855 0 0 0.0855 -8.3741 26.0562)" id="_2383627188384">
<linearGradient id="SVGID_51" gradientUnits="userSpaceOnUse" gradientTransform="matrix(1 0 0 1 -4035.995 -6151.17)" x1="3892.03" y1="5764.78" x2="5500.39" y2="8194.11">
<stop offset="0%" style="stop-color:rgb(255,242,18);stop-opacity: 1"/>
<stop offset="100%" style="stop-color:rgb(237,50,55);stop-opacity: 1"/>
</linearGradient>
<polygon style="stroke: none; stroke-width: 1; stroke-dasharray: none; stroke-linecap: butt; stroke-dashoffset: 0; stroke-linejoin: miter; stroke-miterlimit: 4; is-custom-font: none; font-file-url: none; fill: url(#SVGID_51); fill-rule: evenodd; opacity: 1;" points="-163.415,205.08 163.415,-64.45 146.485,-205.08 -163.415,72.27 "/>
</g>
		<g transform="matrix(0.0855 0 0 0.0855 -7.2605 42.5379)" id="_2383627188384">
<linearGradient id="SVGID_52" gradientUnits="userSpaceOnUse" gradientTransform="matrix(1 0 0 1 -4049.015 -6343.88)" x1="3892.03" y1="5764.78" x2="5500.39" y2="8194.11">
<stop offset="0%" style="stop-color:rgb(255,242,18);stop-opacity: 1"/>
<stop offset="100%" style="stop-color:rgb(237,50,55);stop-opacity: 1"/>
</linearGradient>
<polygon style="stroke: none; stroke-width: 1; stroke-dasharray: none; stroke-linecap: butt; stroke-dashoffset: 0; stroke-linejoin: miter; stroke-miterlimit: 4; is-custom-font: none; font-file-url: none; fill: url(#SVGID_52); fill-rule: evenodd; opacity: 1;" points="-163.415,205.08 163.415,-64.45 146.485,-205.08 -163.415,72.27 "/>
</g>
		<g transform="matrix(0.0855 0 0 0.0855 -6.3698 60.1333)" id="_2383627188384">
<linearGradient id="SVGID_53" gradientUnits="userSpaceOnUse" gradientTransform="matrix(1 0 0 1 -4059.43 -6549.61)" x1="3892.03" y1="5764.78" x2="5500.39" y2="8194.11">
<stop offset="0%" style="stop-color:rgb(255,242,18);stop-opacity: 1"/>
<stop offset="100%" style="stop-color:rgb(237,50,55);stop-opacity: 1"/>
</linearGradient>
<polygon style="stroke: none; stroke-width: 1; stroke-dasharray: none; stroke-linecap: butt; stroke-dashoffset: 0; stroke-linejoin: miter; stroke-miterlimit: 4; is-custom-font: none; font-file-url: none; fill: url(#SVGID_53); fill-rule: evenodd; opacity: 1;" points="-163.41,205.08 163.41,-64.46 146.48,-205.08 -163.41,72.26 "/>
</g>
		<g transform="matrix(0.0855 0 0 0.0855 -5.0339 75.9467)" id="_2383627188384">
<linearGradient id="SVGID_54" gradientUnits="userSpaceOnUse" gradientTransform="matrix(1 0 0 1 -4075.05 -6734.505)" x1="3892.03" y1="5764.78" x2="5500.39" y2="8194.11">
<stop offset="0%" style="stop-color:rgb(255,242,18);stop-opacity: 1"/>
<stop offset="100%" style="stop-color:rgb(237,50,55);stop-opacity: 1"/>
</linearGradient>
<polygon style="stroke: none; stroke-width: 1; stroke-dasharray: none; stroke-linecap: butt; stroke-dashoffset: 0; stroke-linejoin: miter; stroke-miterlimit: 4; is-custom-font: none; font-file-url: none; fill: url(#SVGID_54); fill-rule: evenodd; opacity: 1;" points="-163.41,205.075 163.41,-64.455 146.49,-205.075 -163.41,72.265 "/>
</g>
		<g transform="matrix(0.0855 0 0 0.0855 41.5188 22.0307)" id="_2383627188384">
<linearGradient id="SVGID_55" gradientUnits="userSpaceOnUse" gradientTransform="matrix(1 0 0 1 -4619.345 -6104.27)" x1="3892.03" y1="5764.78" x2="5500.39" y2="8194.11">
<stop offset="0%" style="stop-color:rgb(255,242,18);stop-opacity: 1"/>
<stop offset="100%" style="stop-color:rgb(237,50,55);stop-opacity: 1"/>
</linearGradient>
<polygon style="stroke: none; stroke-width: 1; stroke-dasharray: none; stroke-linecap: butt; stroke-dashoffset: 0; stroke-linejoin: miter; stroke-miterlimit: 4; is-custom-font: none; font-file-url: none; fill: url(#SVGID_55); fill-rule: evenodd; opacity: 1;" points="-119.795,-622.39 20.825,-744.79 119.795,742.19 -31.255,744.79 "/>
</g>
		<g transform="matrix(0.0855 0 0 0.0855 52.9905 25.54)" id="_2383627188384">
<linearGradient id="SVGID_56" gradientUnits="userSpaceOnUse" gradientTransform="matrix(1 0 0 1 -4753.465 -6145.29)" x1="3892.03" y1="5764.78" x2="5500.39" y2="8194.11">
<stop offset="0%" style="stop-color:rgb(255,242,18);stop-opacity: 1"/>
<stop offset="100%" style="stop-color:rgb(237,50,55);stop-opacity: 1"/>
</linearGradient>
<polygon style="stroke: none; stroke-width: 1; stroke-dasharray: none; stroke-linecap: butt; stroke-dashoffset: 0; stroke-linejoin: miter; stroke-miterlimit: 4; is-custom-font: none; font-file-url: none; fill: url(#SVGID_56); fill-rule: evenodd; opacity: 1;" points="24.735,706.38 84.635,711.59 -13.015,-711.59 -84.635,-702.48 "/>
</g>
		<g transform="matrix(0.0855 0 0 0.0855 62.0781 29.5439)" id="_2383627188384">
<linearGradient id="SVGID_57" gradientUnits="userSpaceOnUse" gradientTransform="matrix(1 0 0 1 -4859.715 -6192.105)" x1="3892.03" y1="5764.78" x2="5500.39" y2="8194.11">
<stop offset="0%" style="stop-color:rgb(255,242,18);stop-opacity: 1"/>
<stop offset="100%" style="stop-color:rgb(237,50,55);stop-opacity: 1"/>
</linearGradient>
<polygon style="stroke: none; stroke-width: 1; stroke-dasharray: none; stroke-linecap: butt; stroke-dashoffset: 0; stroke-linejoin: miter; stroke-miterlimit: 4; is-custom-font: none; font-file-url: none; fill: url(#SVGID_57); fill-rule: evenodd; opacity: 1;" points="-72.375,-706.325 -15.085,-684.195 72.375,706.325 7.265,680.285 "/>
</g>
		<g transform="matrix(0.0855 0 0 0.0855 71.233 34.2446)" id="_2383627188384">
<linearGradient id="SVGID_58" gradientUnits="userSpaceOnUse" gradientTransform="matrix(1 0 0 1 -4966.755 -6247.06)" x1="3892.03" y1="5764.78" x2="5500.39" y2="8194.11">
<stop offset="0%" style="stop-color:rgb(255,242,18);stop-opacity: 1"/>
<stop offset="100%" style="stop-color:rgb(237,50,55);stop-opacity: 1"/>
</linearGradient>
<polygon style="stroke: none; stroke-width: 1; stroke-dasharray: none; stroke-linecap: butt; stroke-dashoffset: 0; stroke-linejoin: miter; stroke-miterlimit: 4; is-custom-font: none; font-file-url: none; fill: url(#SVGID_58); fill-rule: evenodd; opacity: 1;" points="-65.105,-684.9 -2.605,-687.5 65.105,687.5 -0.005,671.87 "/>
</g>
		<g transform="matrix(0.0855 0 0 0.0855 -0.0353 100.1732)" id="_2383627188384">
<linearGradient id="SVGID_59" gradientUnits="userSpaceOnUse" gradientTransform="matrix(1 0 0 1 0 0)" x1="3957.74" y1="5721.27" x2="5434.67" y2="8237.63">
<stop offset="0%" style="stop-color:rgb(255,242,18);stop-opacity: 1"/>
<stop offset="100%" style="stop-color:rgb(237,50,55);stop-opacity: 1"/>
</linearGradient>
<path style="stroke: none; stroke-width: 1; stroke-dasharray: none; stroke-linecap: butt; stroke-dashoffset: 0; stroke-linejoin: miter; stroke-miterlimit: 4; is-custom-font: none; font-file-url: none; fill: url(#SVGID_59); fill-rule: evenodd; opacity: 1;" transform=" translate(-4133.8557, -7017.7801)" d="M 5468.72 7229.48 c -757.48 -380.17 -1780.13 -185.38 -2670.8 27.24 c 741.53 -408.7 1631.95 -692.23 2425.67 -266.4 c 276.48 148.34 245.13 239.16 245.13 239.16 z" stroke-linecap="round"/>
</g>
		<g transform="matrix(0.0855 0 0 0.0855 -1.9115 -14.5119)" id="_2383627188384">
<linearGradient id="SVGID_60" gradientUnits="userSpaceOnUse" gradientTransform="matrix(1 0 0 1 -4111.64 -5677.155)" x1="3892.03" y1="5764.78" x2="5500.39" y2="8194.11">
<stop offset="0%" style="stop-color:rgb(255,242,18);stop-opacity: 1"/>
<stop offset="100%" style="stop-color:rgb(237,50,55);stop-opacity: 1"/>
</linearGradient>
<polygon style="stroke: none; stroke-width: 1; stroke-dasharray: none; stroke-linecap: butt; stroke-dashoffset: 0; stroke-linejoin: miter; stroke-miterlimit: 4; is-custom-font: none; font-file-url: none; fill: url(#SVGID_60); fill-rule: evenodd; opacity: 1;" points="-434.9,-816.495 39.06,-1240.975 281.25,-1009.205 434.9,1173.085 195.32,1178.295 41.67,-1087.335 -374.99,-757.255 -238.94,1222.915 -370.31,1240.975 "/>
</g>
</g>
</g>
</svg>