<svg xmlns="http://www.w3.org/2000/svg" xmlns:xlink="http://www.w3.org/1999/xlink" xml:space="preserve" width="5000" height="5000" version="1.1" style="shape-rendering:geometricPrecision; text-rendering:geometricPrecision; image-rendering:optimizeQuality; fill-rule:evenodd; clip-rule:evenodd"><rect id="backgroundrect" width="100%" height="100%" x="0" y="0" fill="none" stroke="none" style="" class=""/>
 <defs>
  <style type="text/css">
   <![CDATA[
    .fil9 {fill:url(#id0)}
    .fil14 {fill:url(#id1)}
    .fil6 {fill:url(#id2)}
    .fil12 {fill:url(#id3)}
    .fil16 {fill:url(#id4)}
    .fil8 {fill:url(#id5)}
    .fil19 {fill:url(#id6)}
    .fil7 {fill:url(#id7)}
    .fil15 {fill:url(#id8)}
    .fil5 {fill:url(#id9)}
    .fil4 {fill:url(#id10)}
    .fil2 {fill:url(#id11)}
    .fil1 {fill:url(#id12)}
    .fil17 {fill:url(#id13)}
    .fil10 {fill:url(#id14)}
    .fil18 {fill:url(#id15)}
    .fil13 {fill:url(#id16)}
    .fil0 {fill:url(#id17)}
    .fil3 {fill:url(#id18)}
    .fil11 {fill:url(#id19)}
   ]]>
  </style>
  <linearGradient id="id0" gradientUnits="userSpaceOnUse" x1="3892.030029296875" y1="5764.77978515625" x2="5500.39013671875" y2="8194.1103515625">
   <stop offset="0" style="stop-opacity:1; stop-color:#FFF212"/>
   <stop offset="1" style="stop-opacity:1; stop-color:#ED3237"/>
  </linearGradient>
  <linearGradient id="id1" gradientUnits="userSpaceOnUse" xlink:href="#id0" x1="3892.030029296875" y1="5764.77978515625" x2="5500.39013671875" y2="8194.1103515625">
  </linearGradient>
  <linearGradient id="id2" gradientUnits="userSpaceOnUse" xlink:href="#id0" x1="3892.030029296875" y1="5764.77978515625" x2="5500.39013671875" y2="8194.1103515625">
  </linearGradient>
  <linearGradient id="id3" gradientUnits="userSpaceOnUse" xlink:href="#id0" x1="3892.030029296875" y1="5764.77978515625" x2="5500.39013671875" y2="8194.1103515625">
  </linearGradient>
  <linearGradient id="id4" gradientUnits="userSpaceOnUse" xlink:href="#id0" x1="3892.030029296875" y1="5764.77978515625" x2="5500.39013671875" y2="8194.1103515625">
  </linearGradient>
  <linearGradient id="id5" gradientUnits="userSpaceOnUse" xlink:href="#id0" x1="3892.030029296875" y1="5764.77978515625" x2="5500.39013671875" y2="8194.1103515625">
  </linearGradient>
  <linearGradient id="id6" gradientUnits="userSpaceOnUse" xlink:href="#id0" x1="3892.030029296875" y1="5764.77978515625" x2="5500.39013671875" y2="8194.1103515625">
  </linearGradient>
  <linearGradient id="id7" gradientUnits="userSpaceOnUse" xlink:href="#id0" x1="3892.030029296875" y1="5764.77978515625" x2="5500.39013671875" y2="8194.1103515625">
  </linearGradient>
  <linearGradient id="id8" gradientUnits="userSpaceOnUse" xlink:href="#id0" x1="3892.030029296875" y1="5764.77978515625" x2="5500.39013671875" y2="8194.1103515625">
  </linearGradient>
  <linearGradient id="id9" gradientUnits="userSpaceOnUse" xlink:href="#id0" x1="3892.030029296875" y1="5764.77978515625" x2="5500.39013671875" y2="8194.1103515625">
  </linearGradient>
  <linearGradient id="id10" gradientUnits="userSpaceOnUse" xlink:href="#id0" x1="3892.030029296875" y1="5764.77978515625" x2="5500.39013671875" y2="8194.1103515625">
  </linearGradient>
  <linearGradient id="id11" gradientUnits="userSpaceOnUse" xlink:href="#id0" x1="3892.030029296875" y1="5764.77978515625" x2="5500.39013671875" y2="8194.1103515625">
  </linearGradient>
  <linearGradient id="id12" gradientUnits="userSpaceOnUse" xlink:href="#id0" x1="3892.030029296875" y1="5764.77978515625" x2="5500.39013671875" y2="8194.1103515625">
  </linearGradient>
  <linearGradient id="id13" gradientUnits="userSpaceOnUse" xlink:href="#id0" x1="3892.030029296875" y1="5764.77978515625" x2="5500.39013671875" y2="8194.1103515625">
  </linearGradient>
  <linearGradient id="id14" gradientUnits="userSpaceOnUse" xlink:href="#id0" x1="3892.030029296875" y1="5764.77978515625" x2="5500.39013671875" y2="8194.1103515625">
  </linearGradient>
  <linearGradient id="id15" gradientUnits="userSpaceOnUse" xlink:href="#id0" x1="3957.739990234375" y1="5721.27001953125" x2="5434.669921875" y2="8237.6298828125">
  </linearGradient>
  <linearGradient id="id16" gradientUnits="userSpaceOnUse" xlink:href="#id0" x1="3892.030029296875" y1="5764.77978515625" x2="5500.39013671875" y2="8194.1103515625">
  </linearGradient>
  <linearGradient id="id17" gradientUnits="userSpaceOnUse" xlink:href="#id0" x1="3892.030029296875" y1="5764.77978515625" x2="5500.39013671875" y2="8194.1103515625">
  </linearGradient>
  <linearGradient id="id18" gradientUnits="userSpaceOnUse" xlink:href="#id0" x1="3892.030029296875" y1="5764.77978515625" x2="5500.39013671875" y2="8194.1103515625">
  </linearGradient>
  <linearGradient id="id19" gradientUnits="userSpaceOnUse" xlink:href="#id0" x1="3892.030029296875" y1="5764.77978515625" x2="5500.39013671875" y2="8194.1103515625">
  </linearGradient>
 </defs>
 
<g class="currentLayer" style=""><title>Layer 1</title><g id="Layer_x0020_1" class="">
  <metadata id="CorelCorpID_0Corel-Layer" transform="translate(-19.999998092651367,0) translate(-1219.9998779296875,-979.9999389648438) translate(-8759.9990234375,-3139.999755859375) translate(6919.99951171875,-59.999996185302734) translate(-6359.99951171875,-219.99998474121094) translate(6499.99951171875,-279.9999694824219) translate(-6939.99951171875,119.99999237060547) translate(7099.99951171875,179.99998474121094) translate(37.920654296875,56.18048095703125) scale(1.8608198165893555,1.751629114151001) translate(-37.920654296875,-56.18048095703125) translate(20.378597259521484,32.073272705078125) scale(1) translate(-20.378597259521484,-32.073272705078125) translate(20.378597259521484,32.073272705078125) scale(0.9959773421287537,1) translate(-20.378597259521484,-32.073272705078125) "/>
  <g id="_2383627188384">
   <polygon class="fil0" points="1425.7695331573486,1476.1734619140625 1761.4818134307861,1646.2218017578125 2006.2143573760986,4322.0625 1581.9310321807861,4375.76806640625 " id="svg_1"/>
   <polygon class="fil1" points="1191.3588886260986,1558.832763671875 1316.8481464385986,1558.832763671875 1534.0230731964111,4464.52294921875 1414.5753192901611,4472.51025390625 " id="svg_2"/>
   <polygon class="fil2" points="1022.3525409698486,1728.705810546875 1174.3820819854736,1726.428955078125 1387.9245624542236,4496.40185546875 1197.2900409698486,4535.18310546875 " id="svg_3"/>
   <polygon class="fil3" points="858.8519306182861,1905.7955322265625 996.4058246612549,1912.643798828125 1161.5029315948486,4493.9677734375 984.1746234893799,4557.42919921875 " id="svg_4"/>
   <polygon class="fil4" points="1849.5894794464111,1245.063720703125 2455.3146991729736,772.9295043945312 2423.9384784698486,526.615234375 1849.5894794464111,1012.4117431640625 " id="svg_5"/>
   <polygon class="fil5" points="1849.5894794464111,1615.6905517578125 2455.3146991729736,1143.556396484375 2423.9384784698486,897.2421264648438 1849.5894794464111,1383.056640625 " id="svg_6"/>
   <polygon class="fil6" points="1876.6112079620361,1970.044677734375 2482.3364276885986,1497.9285888671875 2450.9582538604736,1251.6143798828125 1876.6112079620361,1737.4117431640625 " id="svg_7"/>
   <polygon class="fil7" points="1915.2163105010986,2316.727783203125 2520.9418964385986,1844.61083984375 2489.5634784698486,1598.279541015625 1915.2163105010986,2084.09423828125 " id="svg_8"/>
   <polygon class="fil8" points="1956.5452899932861,2691.418212890625 2562.2707538604736,2219.284423828125 2530.8942890167236,1972.970703125 1956.5452899932861,2458.76708984375 " id="svg_9"/>
   <polygon class="fil9" points="1985.5126972198486,3042.6552734375 2591.2199726104736,2570.52099609375 2559.8435077667236,2324.207275390625 1985.5126972198486,2810.00390625 " id="svg_10"/>
   <polygon class="fil10" points="2009.6259784698486,3419.4306640625 2615.3513202667236,2947.314453125 2583.9731464385986,2700.982421875 2009.6259784698486,3186.796630859375 " id="svg_11"/>
   <polygon class="fil11" points="2033.7553730010986,3756.987060546875 2639.4809589385986,3284.870849609375 2608.1047382354736,3038.53857421875 2033.7553730010986,3524.353271484375 " id="svg_12"/>
   <polygon class="fil12" points="2053.0671405792236,4117.349609375 2658.7744159698486,3645.21533203125 2627.3979511260986,3398.901123046875 2053.0671405792236,3884.698486328125 " id="svg_13"/>
   <polygon class="fil13" points="2082.0163593292236,4441.20849609375 2687.7238788604736,3969.091552734375 2656.3635272979736,3722.778076171875 2082.0163593292236,4208.57470703125 " id="svg_14"/>
   <polygon class="fil14" points="3171.6103534698486,1887.8583984375 3432.2265644073486,1673.4593505859375 3615.6503925323486,4278.0966796875 3335.7048358917236,4282.65087890625 " id="svg_15"/>
   <polygon class="fil15" points="3688.0410175323486,4287.22265625 3799.0561542510986,4296.3486328125 3618.0776386260986,1803.4654541015625 3485.3435077667236,1819.422607421875 " id="svg_16"/>
   <polygon class="fil16" points="3704.9816913604736,1894.6895751953125 3811.1572284698486,1933.4539794921875 3973.2517108917236,4369.12939453125 3852.5803241729736,4323.5166015625 " id="svg_17"/>
   <polygon class="fil17" points="3916.8356952667236,2028.479736328125 4032.6687030792236,2023.92529296875 4158.157716751099,4432.41552734375 4037.4885272979736,4405.03759765625 " id="svg_18"/>
   <path class="fil18" d="M4967.806024777221,4949.00582438501 c-1403.8637224561876,-665.9168403267861 -3299.1761211595467,-324.7170051813126 -4949.885449036259,47.714377069473265 c1374.303039173228,-715.8908189535141 3024.5490334561646,-1212.5302216887474 4495.577593666236,-466.6339960098266 c512.4098880296335,259.8366627931595 454.30785537002333,418.91961894035336 454.30785537002333,418.91961894035336 z" id="svg_19"/>
   <polygon class="fil19" points="1646.6673603057861,799.7119750976562 2525.0754413604736,56.18048095703125 2973.9335956573486,462.1556091308594 3258.6972675323486,4284.71826171875 2814.6770038604736,4293.84423828125 2529.9116230010986,325.3001708984375 1757.7009296417236,903.47802734375 2009.8468036651611,4372.0009765625 1766.3757343292236,4403.6357421875 " id="svg_20"/>
  </g>
 </g></g></svg>